<svg width="38" height="38" viewBox="0 0 38 38" fill="none" xmlns="http://www.w3.org/2000/svg">
<path d="M19 38C29.4934 38 38 29.4934 38 19C38 8.50659 29.4934 0 19 0C8.50659 0 0 8.50659 0 19C0 29.4934 8.50659 38 19 38Z" fill="url(#paint0_linear_29_71)"/>
<path d="M22.3207 9.03052C22.7314 8.31372 22.4859 7.39819 21.7724 6.98564C21.059 6.57308 20.1477 6.81972 19.737 7.53651L19.0208 8.78677L18.3045 7.53651C17.8938 6.81972 16.9825 6.57308 16.2691 6.98564C15.5556 7.39819 15.3101 8.31372 15.7208 9.03052L17.3009 11.7887L12.3028 20.5131H8.27633C7.45312 20.5131 6.78577 21.1836 6.78577 22.0106C6.78577 22.8376 7.45312 23.5081 8.27633 23.5081H22.3012C22.4241 23.1834 22.5536 22.6265 22.4158 22.1146C22.2089 21.3451 21.4429 20.5131 20.1593 20.5131H15.7425L22.3207 9.03052Z" fill="white"/>
<path d="M13.078 25.164C12.8236 24.8802 12.2539 24.4268 11.7542 24.2777C10.9924 24.0501 10.4149 24.1928 10.1235 24.3171L9.01321 26.2553C8.60257 26.972 8.84806 27.8875 9.56154 28.3001C10.275 28.7127 11.1862 28.4661 11.5969 27.7492L13.078 25.164Z" fill="white"/>
<path d="M27.4543 23.5079H29.7237C30.547 23.5079 31.2143 22.8375 31.2143 22.0105C31.2143 21.1834 30.547 20.513 29.7237 20.513H25.7386L21.2495 12.6771C20.916 12.9955 20.2767 13.8088 20.18 14.731C20.0558 15.9165 20.242 16.9148 20.8011 17.8924C22.6803 21.1789 24.5625 24.464 26.4445 27.7491C26.8551 28.466 27.7663 28.7126 28.4799 28.3C29.1934 27.8874 29.4389 26.9719 29.0282 26.2552L27.4543 23.5079Z" fill="white"/>
<defs>
<linearGradient id="paint0_linear_29_71" x1="19" y1="0" x2="19" y2="38" gradientUnits="userSpaceOnUse">
<stop stop-color="#2AC9FA"/>
<stop offset="1" stop-color="#1F65EB"/>
</linearGradient>
</defs>
</svg>
