<svg width="49" height="60" viewBox="0 0 49 60" fill="none" xmlns="http://www.w3.org/2000/svg">
<path d="M44.8325 52.4965C42.326 56.2163 39.6685 59.846 35.6218 59.906C31.5751 59.996 30.2765 57.5362 25.6863 57.5362C21.0658 57.5362 19.6464 59.846 15.811 59.996C11.8549 60.146 8.86523 56.0363 6.3285 52.4065C1.16445 44.997 -2.79164 31.3479 2.52341 22.1685C5.15074 17.6088 9.86181 14.729 14.9655 14.639C18.831 14.579 22.5153 17.2489 24.9011 17.2489C27.2566 17.2489 31.7261 14.0391 36.407 14.519C38.3699 14.609 43.8661 15.299 47.3994 20.4586C47.1276 20.6386 40.8462 24.2984 40.9066 31.8879C40.9972 40.9473 48.9094 43.9771 49 44.0071C48.9094 44.2171 47.7316 48.3268 44.8325 52.4965ZM27.5888 4.4997C29.7933 2.00987 33.4474 0.119992 36.4673 0C36.8599 3.50977 35.4406 7.04953 33.3266 9.56936C31.2429 12.1192 27.8002 14.0991 24.4179 13.8291C23.9649 10.3793 25.6561 6.77955 27.5888 4.4997Z" fill="#0066CC"/>
</svg>
