<svg width="34" height="36" viewBox="0 0 34 36" fill="none" xmlns="http://www.w3.org/2000/svg">
<mask id="mask0_29_142" style="mask-type:alpha" maskUnits="userSpaceOnUse" x="0" y="0" width="34" height="36">
<path d="M31.9131 15.7851C33.6699 16.7519 33.6699 19.2481 31.9131 20.2148L3.81637 35.6758C2.10533 36.6173 0 35.3954 0 33.461V2.53902C0 0.604481 2.10533 -0.61733 3.81637 0.324207L31.9131 15.7851Z" fill="#C4C4C4"/>
</mask>
<g mask="url(#mask0_29_142)">
<path d="M0.878855 35.3722L18.4047 17.7478L1.16749 0.413757C0.47981 0.854591 0 1.6157 0 2.53924V33.4611C0 34.2491 0.349241 34.9187 0.878855 35.3722Z" fill="url(#paint0_linear_29_142)"/>
<path d="M31.9126 15.785C33.6695 16.7518 33.6695 19.2478 31.9126 20.2145L24.8243 24.1151L18.4043 17.7473L24.497 11.7043L31.9126 15.785Z" fill="url(#paint1_linear_29_142)"/>
<path d="M24.825 24.1156L18.4048 17.7479L0.878906 35.3722C1.64961 36.0321 2.8023 36.2341 3.81647 35.676L24.825 24.1156Z" fill="url(#paint2_linear_29_142)"/>
<path d="M1.16693 0.413515L18.4042 17.7476L24.4969 11.7046L3.81578 0.324207C2.9216 -0.167843 1.91973 -0.0690503 1.16693 0.413515Z" fill="url(#paint3_linear_29_142)"/>
</g>
<defs>
<linearGradient id="paint0_linear_29_142" x1="12.0142" y1="10.9024" x2="0.0983896" y2="22.9162" gradientUnits="userSpaceOnUse">
<stop stop-color="#00C3FF"/>
<stop offset="1" stop-color="#1BE2FA"/>
</linearGradient>
<linearGradient id="paint1_linear_29_142" x1="18.4043" y1="17.7474" x2="34.2527" y2="17.7474" gradientUnits="userSpaceOnUse">
<stop stop-color="#FFCE00"/>
<stop offset="1" stop-color="#FFEA00"/>
</linearGradient>
<linearGradient id="paint2_linear_29_142" x1="0.511361" y1="37.5236" x2="21.593" y2="20.622" gradientUnits="userSpaceOnUse">
<stop stop-color="#DE2453"/>
<stop offset="1" stop-color="#FE3944"/>
</linearGradient>
<linearGradient id="paint3_linear_29_142" x1="1.53313" y1="-1.52118" x2="21.596" y2="14.8659" gradientUnits="userSpaceOnUse">
<stop stop-color="#11D574"/>
<stop offset="1" stop-color="#01F176"/>
</linearGradient>
</defs>
</svg>
