<svg width="31" height="31" viewBox="0 0 31 31" fill="none" xmlns="http://www.w3.org/2000/svg">
<path d="M26.4219 26.4231H21.827V19.2271C21.827 17.511 21.7964 15.3029 19.4371 15.3029C17.0441 15.3029 16.6774 17.1718 16.6774 19.1034V26.4231H12.084V11.6247H16.4955V13.6464H16.5567C17.4567 12.1091 19.1284 11.1907 20.9086 11.2564C25.5662 11.2564 26.4234 14.3203 26.4234 18.3041L26.4219 26.4231ZM6.89925 9.60144C5.42619 9.60144 4.23276 8.40798 4.23276 6.93486C4.23276 5.46174 5.42619 4.26827 6.89925 4.26827C8.37231 4.26827 9.56573 5.46174 9.56573 6.93486C9.56573 8.40798 8.37231 9.60144 6.89925 9.60144ZM9.19594 26.4231H4.59644V11.6247H9.19594V26.4231ZM28.7125 0.00173686H2.28752C1.03909 -0.0120163 0.0152807 0.988908 0 2.23739V28.7718C0.0152807 30.0218 1.03909 31.0228 2.28752 31.009H28.7125C29.964 31.0243 30.9924 30.0234 31.0092 28.7718V2.23586C30.9908 0.984324 29.9624 -0.0166008 28.7125 0.000208659" fill="#0B192C"/>
</svg>
