<svg width="1024" height="1024" viewBox="0 0 1024 1024" fill="none" xmlns="http://www.w3.org/2000/svg">
<path d="M0 0H1024V1024H0V0Z" fill="#323437"/>
<path d="M63.1333 919.467V619.867H114.533L116.533 641.067C119.467 637.467 122.667 634.267 126.133 631.467C129.6 628.533 133.333 626 137.333 623.867C142.133 621.333 147.4 619.4 153.133 618.067C159 616.6 165.267 615.867 171.933 615.867C185.667 615.867 197.8 618.533 208.333 623.867C218.867 629.067 227.733 636.467 234.933 646.067C242.133 655.8 247.533 667.467 251.133 681.067C254.867 694.533 256.733 709.467 256.733 725.867V730.067C256.733 745.8 254.867 760.4 251.133 773.867C247.533 787.333 242.2 798.933 235.133 808.667C227.933 818.533 219.067 826.267 208.533 831.867C198 837.467 185.933 840.267 172.333 840.267C165.133 840.267 158.467 839.467 152.333 837.867C146.333 836.4 140.733 834.2 135.533 831.267C132.467 829.4 129.533 827.333 126.733 825.067C123.933 822.8 121.267 820.267 118.733 817.467V919.467H63.1333ZM201.133 725.867C201.133 716.8 200.267 708.333 198.533 700.467C196.933 692.467 194.4 685.533 190.933 679.667C187.333 673.933 182.733 669.4 177.133 666.067C171.667 662.733 165 661.067 157.133 661.067C152.6 661.067 148.467 661.533 144.733 662.467C141 663.267 137.6 664.467 134.533 666.067C131.067 667.933 128 670.267 125.333 673.067C122.8 675.867 120.6 679.133 118.733 682.867V773.267C120.467 776.733 122.533 779.867 124.933 782.667C127.467 785.467 130.333 787.867 133.533 789.867C136.6 791.733 140.133 793.2 144.133 794.267C148.133 795.2 152.6 795.667 157.533 795.667C165.4 795.667 172.067 793.933 177.533 790.467C183.133 787 187.667 782.267 191.133 776.267C194.6 770.267 197.133 763.333 198.733 755.467C200.333 747.467 201.133 739 201.133 730.067V725.867Z" fill="#D1D0C5"/>
<path d="M410.333 566.867V619.867H491.133V660.867H410.333V753.867C410.333 761.733 411.2 768.333 412.933 773.667C414.8 778.867 417.4 783 420.733 786.067C424.067 789.267 428.067 791.533 432.733 792.867C437.533 794.2 442.867 794.867 448.733 794.867C453 794.867 457.333 794.667 461.733 794.267C466.267 793.867 470.6 793.333 474.733 792.667C478.733 792.133 482.467 791.533 485.933 790.867C489.533 790.2 492.6 789.533 495.133 788.867L500.533 827.067C496.667 829.333 492.133 831.333 486.933 833.067C481.733 834.667 476.2 836 470.333 837.067C464.467 838.133 458.333 838.933 451.933 839.467C445.667 840.133 439.467 840.467 433.333 840.467C421.467 840.467 410.667 838.933 400.933 835.867C391.333 832.667 383.133 827.733 376.333 821.067C369.4 814.533 364.067 806.2 360.333 796.067C356.6 785.8 354.733 773.533 354.733 759.267V660.867H305.333V619.867H354.733V566.867H410.333Z" fill="#D1D0C5"/>
<path d="M529.067 426.667H733.867V955.733H529.067V426.667Z" fill="#E2B714"/>
</svg>
