<svg width="53" height="50" viewBox="0 0 53 50" fill="none" xmlns="http://www.w3.org/2000/svg">
<rect y="0.924561" width="52.2262" height="48.1132" rx="10" fill="#02C39A"/>
<path d="M19.364 39.324C18.452 39.324 17.756 39.072 17.276 38.568C16.796 38.064 16.556 37.356 16.556 36.444V16.464C16.556 15.528 16.796 14.82 17.276 14.34C17.78 13.86 18.488 13.62 19.4 13.62H28.148C30.98 13.62 33.164 14.34 34.7 15.78C36.236 17.196 37.004 19.176 37.004 21.72C37.004 24.264 36.236 26.256 34.7 27.696C33.164 29.136 30.98 29.856 28.148 29.856H22.136V36.444C22.136 37.356 21.896 38.064 21.416 38.568C20.96 39.072 20.276 39.324 19.364 39.324ZM22.136 25.536H27.212C28.652 25.536 29.744 25.212 30.488 24.564C31.256 23.916 31.64 22.968 31.64 21.72C31.64 20.472 31.256 19.536 30.488 18.912C29.744 18.288 28.652 17.976 27.212 17.976H22.136V25.536Z" fill="#F8F9FA"/>
</svg>
